<svg xmlns="http://www.w3.org/2000/svg" width="50" height="50" viewBox="0 0 50 50">
  <g id="Abu_Dhabi" data-name="Abu Dhabi" transform="translate(-133.47 -2195.296)">
    <path id="Path_195" data-name="Path 195" d="M117.225,1997.866l5.893-5.893H111.333Z" transform="translate(41.245 247.073)" fill="#bd8b13"/>
    <path id="Path_196" data-name="Path 196" d="M132.071,1979.809H143.53v-2.083h-4.167c0-1.834-1.192-5.079-3.124-5.989v-2.344h-2.083v2.344c-1.933.91-3.125,4.155-3.125,5.989h-2.083v-1.041a1.041,1.041,0,0,0-1.042-1.042h-1.041v-6.25a8.321,8.321,0,0,0-7.143-8.213v-2.2h-2.083v2.174a8.317,8.317,0,0,0-7.441,8.243v6.25h-1.041a1.042,1.042,0,0,0-1.042,1.042v1.041H106.03c0-1.834-1.191-5.079-3.124-5.989v-2.344h-2.083v2.344c-1.933.91-3.125,4.155-3.125,5.989H93.53v2.083h14.583v2.083H94.572a1.041,1.041,0,0,0-1.042,1.042v9.375h50v-9.375a1.041,1.041,0,0,0-1.041-1.042H128.947v-2.083Zm3.125-6.25c.779,0,2.083,2.609,2.083,4.167h-4.167C133.113,1976.168,134.417,1973.559,135.2,1973.559Zm-35.417,4.167c0-1.557,1.3-4.167,2.083-4.167s2.083,2.609,2.083,4.167Zm8.333,12.5H106.03v-2.083h-2.083v2.083h-2.083v-2.083H99.78v2.083H95.613v-6.25h12.5Zm4.168-20.833a6.25,6.25,0,0,1,12.5,0v6.25H122.7v-2.083a4.157,4.157,0,0,0-2.976-3.972v-2.278h-2.083v2.185a4.168,4.168,0,0,0-3.274,4.065v2.083h-2.083Zm8.333,4.167v2.083h-4.167v-2.083a2.083,2.083,0,0,1,4.167,0Zm0,16.666h-4.167v-2.083a2.083,2.083,0,0,1,4.167,0Zm6.25-10.416v10.416H122.7v-2.083a4.167,4.167,0,0,0-8.333,0v2.083H110.2v-12.5h16.667Zm14.583,4.167v6.25H137.28v-2.083H135.2v2.083h-2.083v-2.083H131.03v2.083h-2.083v-6.25Z" transform="translate(39.94 244.654)" fill="#4e4c4a"/>
    <path id="Path_197" data-name="Path 197" d="M93.53,1991.973v2.084h18.245l-2.083-2.084Z" transform="translate(39.94 247.073)" fill="#4e4c4a"/>
    <path id="Path_198" data-name="Path 198" d="M123.117,1994.057h18.245v-2.084H125.2Z" transform="translate(42.109 247.073)" fill="#4e4c4a"/>
    <rect id="Rectangle_67" data-name="Rectangle 67" width="50" height="50" transform="translate(133.47 2195.296)" fill="none"/>
  </g>
</svg>
