<svg xmlns="http://www.w3.org/2000/svg" width="49.999" height="49.999" viewBox="0 0 49.999 49.999">
  <g id="Ticket_Reservation" data-name="Ticket / Reservation" transform="translate(-349.232 -3600.001)">
    <path id="Path_1067" data-name="Path 1067" d="M280.835,3143.013l8.184,1.571-6.612-9.756Z" transform="translate(81.428 498.674)" fill="#bd8b13"/>
    <path id="Path_1068" data-name="Path 1068" d="M291.856,3115.94a1.038,1.038,0,0,0,.291-.729,1.129,1.129,0,0,0-.291-.75,1.112,1.112,0,0,0-1.479,0,1.152,1.152,0,0,0-.312.75,1.058,1.058,0,0,0,.312.729.97.97,0,0,0,.729.314A1.05,1.05,0,0,0,291.856,3115.94Z" transform="translate(82.271 496.788)" fill="#4e4c4a"/>
    <path id="Path_1069" data-name="Path 1069" d="M300.861,3118.106a1.041,1.041,0,0,0,.188-2.064,1.038,1.038,0,0,0-.375,2.042A.562.562,0,0,0,300.861,3118.106Z" transform="translate(83.162 496.957)" fill="#4e4c4a"/>
    <path id="Path_1070" data-name="Path 1070" d="M294.372,3116.864a1.067,1.067,0,0,0,1.021-.832,1.05,1.05,0,0,0-.834-1.229,1.071,1.071,0,0,0-1.229.832,1.038,1.038,0,0,0,.833,1.208A.642.642,0,0,0,294.372,3116.864Z" transform="translate(82.567 496.844)" fill="#4e4c4a"/>
    <path id="Path_1071" data-name="Path 1071" d="M297.408,3117.475h.208a1.043,1.043,0,0,0,1.02-.833,1.028,1.028,0,0,0-.834-1.208,1.011,1.011,0,0,0-1.208.813A1.031,1.031,0,0,0,297.408,3117.475Z" transform="translate(82.865 496.901)" fill="#4e4c4a"/>
    <path id="Path_1072" data-name="Path 1072" d="M304.835,3118.423a1.055,1.055,0,0,0,.313-.75.9.9,0,0,0-.084-.4.863.863,0,0,0-.229-.334,1.044,1.044,0,0,0-1.458,0,.873.873,0,0,0-.229.334.887.887,0,0,0-.083.4,1.054,1.054,0,0,0,.312.75,1.057,1.057,0,0,0,1.458,0Z" transform="translate(83.458 497.014)" fill="#4e4c4a"/>
    <path id="Path_1073" data-name="Path 1073" d="M288.556,3131.3l5.971-1.32-.829,4.1-2.984,1.231.794,1.925,2.9-1.193,2.488,2.2,1.381-1.559-2.525-2.235.832-4.105,5.211,3.471,1.156-1.733-5.921-3.944.74-3.649a1.042,1.042,0,0,0-2.043-.413l-.743,3.67-6.873,1.519Z" transform="translate(82.092 497.615)" fill="#4e4c4a"/>
    <path id="Path_1074" data-name="Path 1074" d="M310.24,3108.188l-5.532-1.052-.34.745a3.408,3.408,0,0,1-6.514-1.24l-.041-.817-6.15-1.17a3.126,3.126,0,0,0-3.655,2.486l-.072.382.036.007-5.175,27.189,1.155,1.7.472.7,5.63-29.589a1.044,1.044,0,0,1,1.02-.847,1.084,1.084,0,0,1,.2.018l4.6.877a5.489,5.489,0,0,0,9.985,1.9l3.988.76a1.042,1.042,0,0,1,.828,1.218l-6.771,35.581a1.041,1.041,0,0,1-1.218.827l-12.609-2.4.483.714,1.137,1.678,10.987,2.09c.066,0,.132.018.2.018a3.129,3.129,0,0,0,3.068-2.54l6.771-35.581A3.13,3.13,0,0,0,310.24,3108.188Z" transform="translate(81.607 495.913)" fill="#4e4c4a"/>
    <path id="Path_1075" data-name="Path 1075" d="M283.278,3151.361a1.04,1.04,0,0,1-1.249-.781l-8.1-35.3a1.042,1.042,0,0,1,.781-1.249l4.766-1.094a5.5,5.5,0,0,0,4.33,2.137,5.39,5.39,0,0,0,1.556-.246l.485-2.542a3.359,3.359,0,0,1-2.041.705,3.426,3.426,0,0,1-2.962-1.744l-.383-.672L274.242,3112a3.13,3.13,0,0,0-2.346,3.745l8.1,35.3a3.129,3.129,0,0,0,3.039,2.427,3.216,3.216,0,0,0,.706-.081l13.5-3.1-5.188-.947Z" transform="translate(80.604 496.459)" fill="#4e4c4a"/>
    <rect id="Rectangle_396" data-name="Rectangle 396" width="49.999" height="49.999" transform="translate(349.232 3600.001)" fill="none"/>
  </g>
</svg>
