<svg width="278" height="58" viewBox="0 0 278 58" fill="none" xmlns="http://www.w3.org/2000/svg">
<path d="M142.177 0.24469H141.813V58H142.177V0.24469Z" fill="#BD8B13"/>
<path d="M72.6066 4.28272L72.4853 4.16035L70.9068 2.56964L69.207 4.28272L70.9068 5.99579L72.6066 4.28272Z" fill="#BD8B13"/>
<path d="M76.1273 4.28272L75.8844 4.16035L74.306 2.56964L72.6062 4.28272L74.306 5.99579L76.1273 4.28272Z" fill="#BD8B13"/>
<path d="M52.5728 3.91561C52.5728 4.2827 52.937 4.40506 53.1798 4.52743C53.5441 4.64979 53.9083 4.89451 53.9083 5.38396V18.7215H68.5996V18.9663C68.5996 19.0886 68.5996 19.0886 68.5996 19.3334C68.5996 20.4346 68.9638 21.1688 69.5709 21.4135C69.5709 21.4135 69.9352 21.6582 70.4208 21.6582C70.7851 21.6582 71.1493 21.5359 71.5135 21.2912L71.7564 21.1688L71.5135 20.9241C71.1493 20.557 70.9065 19.5781 70.9065 18.9663V18.8439H76.3701V6.60759C76.3701 6.60759 75.6417 8.19832 72.9705 10.1561C72.9705 10.1561 73.0919 10.6456 73.5776 10.8903C74.3061 11.2574 74.1847 11.6245 74.1847 11.6245V16.519H70.7851V16.2743V16.0296C70.7851 14.8059 70.4208 11.8692 67.1426 11.8692H67.0212C66.0499 11.8692 65.0786 11.8692 64.3501 11.8692H64.1072C62.1646 11.8692 61.1932 11.6245 60.829 11.135L60.7076 10.8903L60.5861 11.0127C60.2219 11.2574 59.9791 11.7468 59.9791 12.2363C59.9791 12.9705 60.4647 13.9494 61.1932 13.9494C61.6789 13.9494 62.4074 13.9494 63.1359 13.9494C64.3501 13.9494 65.6856 13.9494 65.6856 13.9494C68.3567 13.9494 68.4781 15.173 68.4781 15.6625V16.2743H56.0938V0C56.0938 0 54.6368 1.95781 52.5728 3.42617V3.54852V3.91561Z" fill="#BD8B13"/>
<path d="M44.0738 20.6793C44.0738 20.6793 43.831 22.6371 47.8377 22.6371C51.1159 22.6371 51.2373 20.557 51.2373 20.557V12.9705C51.2373 12.481 51.1159 11.135 49.7804 11.135H38.3673V10.2785C38.3673 10.0337 38.4887 10.0338 38.7316 9.9114C39.3386 9.54431 39.4601 9.17722 39.3386 8.93249C38.0031 8.19831 36.6675 6.48523 36.6675 6.48523V13.0928H48.0805H48.2019C48.5662 13.0928 49.0519 13.2152 49.0519 13.9494V19.3333C49.0519 19.3333 49.0519 20.4346 47.9591 20.4346C46.1379 20.4346 46.2593 19.4557 46.2593 19.4557V16.519H36.6675V18.8439H44.1953V20.6793H44.0738Z" fill="#BD8B13"/>
<path d="M91.7905 5.38393C91.7905 4.77212 92.1547 4.64976 92.3976 4.5274C92.6404 4.40503 92.8832 4.28268 93.0046 3.79323V3.67086C93.0046 3.42613 92.8832 3.42613 92.6404 3.30377C92.3976 3.1814 92.0334 2.93667 91.3049 2.32486C90.0907 1.34595 89.8479 0.856505 89.8479 0.856505L89.4836 0.24469V18.8439H91.7905C91.7905 18.7215 91.7905 5.75102 91.7905 5.38393Z" fill="#BD8B13"/>
<path d="M84.0193 21.1688L82.4408 22.7595L80.8624 21.1688L82.4408 19.5781L84.0193 21.1688ZM78.7984 21.1688L82.5623 24.962L86.3261 21.1688L84.0193 18.8439L86.8118 15.9072V0.24469C86.8118 0.24469 85.7191 2.5696 83.8978 3.79323V3.91558C83.8978 4.28267 84.1407 4.40503 84.3835 4.5274C84.6263 4.64976 84.8691 4.89448 84.8691 5.38393C84.8691 5.87338 84.8691 14.8059 84.8691 14.8059L82.5623 17.2532L80.2554 14.8059C80.2554 14.6835 80.2554 5.75102 80.2554 5.38393C80.2554 4.77212 80.4982 4.64976 80.7411 4.5274C80.9839 4.40503 81.1053 4.28267 81.2267 3.91558V3.79323C79.5269 2.5696 78.3127 0.24469 78.3127 0.24469V16.1519L81.1053 18.9662L78.7984 21.1688Z" fill="#BD8B13"/>
<path d="M72.1209 29.3671L72.728 29.7342C72.8494 29.8566 72.8495 29.8566 72.8495 29.9789V34.8735H62.2863L59.858 37.9325V29.9789V29.8566L59.9794 29.7342L60.4651 29.3671V28.8777H55.1228V29.3671L55.6085 29.7342L55.7299 29.8566V44.4178V44.6625L55.6085 44.7849L55.1228 45.152V45.6414H60.4651V45.152L59.858 44.7849L59.7366 44.6625V38.0549L60.3437 38.1773L61.0722 37.8102L61.4364 37.6878C61.4364 37.6878 61.5578 37.6878 61.6792 37.6878H72.728V42.8271L76.7348 38.5444V30.1013L76.8562 29.9789L77.4632 29.7342V29.2448H72.1209V29.3671Z" fill="#BD8B13"/>
<path d="M129.186 35.3629C128.579 33.4051 127.122 31.8144 124.936 30.5907C122.994 29.4895 120.201 29 116.437 29H101.989V29.4895L102.596 29.8565V31.5696H116.316C119.109 31.5696 121.173 31.9367 122.387 32.6709C124.329 33.7722 125.301 35.3629 125.301 37.1983C125.301 38.1772 125.058 39.0338 124.572 39.8903C124.087 40.6245 123.237 41.3587 122.265 41.8481C120.93 42.5823 118.866 42.9494 116.195 42.9494H109.031V32.7933H105.146V44.4177V44.5401L105.024 44.6625L104.539 44.9072V45.3967H116.316C118.623 45.3967 120.323 45.2743 121.658 45.0296C123.358 44.6625 124.936 44.0507 126.151 43.1941C127.486 42.3376 128.458 41.2363 128.943 40.135C129.307 39.2785 129.55 38.422 129.55 37.4431C129.429 36.7089 129.307 35.9747 129.186 35.3629Z" fill="#BD8B13"/>
<path d="M84.87 31.9367L72 45.3966H77.9494V44.7848H77.7065H77.4637H77.2208L87.0555 34.384L84.87 31.9367Z" fill="#BD8B13"/>
<path d="M97.8606 44.9072V45.519H103.688L88.1473 29L85.8405 31.4473L88.3902 34.1392L91.0613 36.8312H86.5689L84.1406 39.4009L84.6263 39.7679L85.2334 39.4009H85.3548C85.3548 39.4009 85.5976 39.4009 85.719 39.4009H93.2468L98.4676 45.0296C98.4676 45.0296 98.3463 45.1519 97.982 45.1519H97.8606V44.9072Z" fill="#BD8B13"/>
<path d="M52.816 29.7342L53.3017 29.3671V28.8777H48.0808V29.3671L48.5665 29.7342L48.8093 29.9789V44.2954V44.5401L48.6879 44.6625L48.0808 44.9072V45.3967H53.3017V44.9072L52.816 44.6625L52.6946 44.5401V29.9789V29.8566L52.816 29.7342Z" fill="#BD8B13"/>
<path d="M26.8328 42.2152H26.59H25.9829L25.2544 42.5823C25.133 42.7047 25.0116 42.7047 24.8902 42.7047H13.1129C10.4417 42.7047 8.37765 42.3376 7.04208 41.6034C4.97802 40.5022 4.00669 39.0338 4.00669 36.9536C4.00669 36.0971 4.24954 35.1182 4.85662 34.384C5.82794 32.9157 7.28491 31.8144 9.47039 31.4473C10.0775 31.3249 10.5631 31.3249 10.9274 31.3249H16.9982C17.3624 31.3249 17.3624 31.4473 17.3624 31.4473L17.241 31.9368H17.7266L20.2764 28.7553H12.9914C11.2916 28.7553 9.95607 28.7553 9.10616 28.8777C8.62049 28.8777 8.13483 29 7.77058 29.1224C6.55643 29.3671 5.46366 29.8566 4.37093 30.4684C2.54969 31.4473 1.33557 32.7933 0.607077 34.2616C0.242831 35.1182 0 36.0971 0 37.1983C0 39.8903 1.45699 41.9705 4.24954 43.5612C5.46369 44.2954 6.92068 44.7849 8.49908 45.0296C9.71323 45.2743 11.2916 45.2743 13.2343 45.2743H24.1617L26.8328 42.2152Z" fill="#BD8B13"/>
<path d="M20.8832 38.2996L23.4329 35.1182H6.31333L4.61353 37.6878H20.0333C20.2761 37.6878 20.3975 37.8101 20.3975 37.8101L20.2761 38.2996H20.8832Z" fill="#BD8B13"/>
<path d="M22.2186 28.8777L19.7903 31.9368L20.2759 32.0591H20.3974L21.1259 31.692C21.3687 31.5697 21.4901 31.4473 21.7329 31.4473H31.2033V44.2954V44.4178L31.0819 44.5401L30.5962 44.9072V45.3967H35.9385V44.9072L35.4529 44.5401L35.3314 44.4178V44.2954V31.4473H43.7091C44.0734 31.4473 44.0734 31.5697 44.0734 31.5697V32.0591H44.559L47.1088 28.8777H22.2186Z" fill="#BD8B13"/>
<path d="M154.683 37.6878C154.683 32.5485 157.597 29.9789 161.239 29.9789C163.425 29.9789 164.639 30.4683 165.367 31.2025V33.6498C164.518 32.6709 163.303 31.9367 161.604 31.9367C158.811 31.9367 156.99 33.7721 156.99 37.6878C156.99 41.6034 158.69 43.6835 161.604 43.6835C163.182 43.6835 164.518 43.0717 165.367 42.0928V44.173C164.518 45.0295 163.061 45.519 161.361 45.519C157.233 45.3966 154.683 42.9494 154.683 37.6878Z" fill="#BD8B13"/>
<path d="M167.796 28.8777H169.982V34.2617C170.468 33.5275 171.682 32.7933 173.26 32.7933C176.295 32.7933 177.51 34.2617 177.51 37.4431V44.9072H175.324V37.8102C175.324 35.3629 174.596 34.384 172.774 34.384C171.317 34.384 170.346 35.1182 169.982 35.73V44.9072H167.796V28.8777Z" fill="#BD8B13"/>
<path d="M179.816 39.1561C179.816 34.8734 182.366 32.9156 185.401 32.9156C188.558 32.9156 190.743 34.8734 190.743 39.1561C190.743 43.4388 188.194 45.3966 185.158 45.3966C182.001 45.3966 179.816 43.4388 179.816 39.1561ZM188.558 39.1561C188.558 36.3418 187.465 34.6287 185.28 34.6287C183.094 34.6287 182.001 36.3418 182.001 39.1561C182.001 41.9705 183.094 43.5612 185.28 43.5612C187.465 43.5612 188.558 41.9705 188.558 39.1561Z" fill="#BD8B13"/>
<path d="M192.564 39.1561C192.564 34.8734 195.114 32.9156 198.15 32.9156C201.306 32.9156 203.492 34.8734 203.492 39.1561C203.492 43.4388 200.942 45.3966 197.907 45.3966C194.75 45.3966 192.564 43.4388 192.564 39.1561ZM201.428 39.1561C201.428 36.3418 200.335 34.6287 198.15 34.6287C195.964 34.6287 194.871 36.3418 194.871 39.1561C194.871 41.9705 195.964 43.5612 198.15 43.5612C200.214 43.5612 201.428 41.9705 201.428 39.1561Z" fill="#BD8B13"/>
<path d="M205.556 44.5401V42.3376C206.164 42.9494 207.256 43.6835 208.956 43.6835C210.777 43.6835 211.627 42.9494 211.627 41.8481C211.627 40.7468 211.142 40.3797 209.563 40.135L208.713 40.0126C206.649 39.6456 205.435 38.6667 205.435 36.4641C205.435 34.384 206.892 32.9156 209.806 32.9156C211.506 32.9156 212.72 33.405 213.327 33.8945V36.097C212.599 35.3629 211.506 34.751 209.927 34.751C208.228 34.751 207.499 35.3629 207.499 36.3418C207.499 37.3207 207.985 37.8101 209.442 38.0548L210.292 38.1772C212.477 38.6667 213.691 39.4008 213.691 41.6034C213.691 43.5612 212.234 45.3966 209.078 45.3966C207.256 45.3966 206.164 44.9072 205.556 44.5401Z" fill="#BD8B13"/>
<path d="M215.391 39.1561C215.391 34.751 218.062 32.9156 220.733 32.9156C223.283 32.9156 225.711 34.1392 225.711 38.4219V39.8903H217.576C217.698 42.0928 218.912 43.5612 221.34 43.5612C223.404 43.5612 224.618 42.827 225.226 42.0928V44.0506C224.618 44.6624 223.404 45.2743 221.219 45.2743C217.698 45.3966 215.391 43.4388 215.391 39.1561ZM223.647 38.2996V38.0548C223.647 35.73 222.554 34.751 220.733 34.751C218.912 34.751 217.698 36.2194 217.698 38.4219H223.647V38.2996Z" fill="#BD8B13"/>
<path d="M232.146 30.3461H234.453L237.488 41.8482H237.61L240.524 32.4262L239.917 30.3461H242.102L245.745 41.8482H245.866L248.902 30.3461H251.087L246.716 45.152H244.895L241.738 34.9959L238.581 45.152H236.76L232.146 30.3461Z" fill="#BD8B13"/>
<path d="M251.937 39.1561C251.937 34.751 254.608 32.9156 257.279 32.9156C259.829 32.9156 262.257 34.1392 262.257 38.4219V39.8903H254.122C254.244 42.0928 255.458 43.5612 257.886 43.5612C259.95 43.5612 261.165 42.827 261.772 42.0928V44.0506C261.165 44.6624 259.95 45.2743 257.765 45.2743C254.244 45.3966 251.937 43.4388 251.937 39.1561ZM260.193 38.2996V38.0548C260.193 35.73 259.1 34.751 257.279 34.751C255.458 34.751 254.244 36.2194 254.244 38.4219H260.193V38.2996Z" fill="#BD8B13"/>
<path d="M264.686 28.8777H266.871V45.0296H264.686V28.8777Z" fill="#BD8B13"/>
<path d="M269.906 28.8777H272.092V45.0296H269.906V28.8777Z" fill="#BD8B13"/>
<path d="M274.641 44.0506C274.641 43.1941 275.248 42.5823 275.977 42.5823C276.827 42.5823 277.312 43.1941 277.312 44.0506C277.312 44.9072 276.705 45.519 275.977 45.519C275.127 45.3966 274.641 44.7848 274.641 44.0506Z" fill="#BD8B13"/>
</svg>
