<svg width="71" height="9" viewBox="0 0 71 9" fill="none" xmlns="http://www.w3.org/2000/svg">
<path d="M39.5497 0.278355L39.8451 0.463924C39.9383 0.510316 39.9383 0.556709 39.9383 0.587637V3.21654H34.1085L32.7871 4.8712V0.587637L32.8027 0.510317C32.8027 0.510317 32.8182 0.494852 32.8648 0.463924L33.1447 0.293819L33.1758 0.278355V0.0154639H30.2686V0.278355L30.5485 0.463924C30.5951 0.494852 30.6107 0.510317 30.6107 0.510317V8.3661L30.5951 8.47434C30.5796 8.48981 30.564 8.52074 30.5329 8.52074L30.2375 8.70631V8.95373H33.1447V8.69084L32.8338 8.50527C32.7871 8.47434 32.7716 8.45888 32.756 8.45888V4.85574L33.0669 4.94852L33.4711 4.71656C33.5489 4.67017 33.6111 4.63924 33.6577 4.62377C33.6888 4.60831 33.7354 4.60831 33.8132 4.60831H39.8761V7.37639L42.0526 5.05677C42.0526 5.05677 42.0526 0.510316 42.0526 0.479388C42.0526 0.44846 42.0992 0.417531 42.0992 0.417531L42.4102 0.26289V0H39.503V0.278355H39.5497Z" fill="#C4921B"/>
<path d="M70.8421 3.52562C70.5001 2.45859 69.7228 1.57714 68.5257 0.912179C67.4375 0.309078 65.914 0.0152588 63.8463 0.0152588H55.9333V0.27815C55.9333 0.27815 56.2598 0.494647 56.2754 0.494647V1.42249H63.8308C65.3543 1.42249 66.4736 1.62353 67.1576 2.0256C68.2303 2.65963 68.7589 3.46376 68.7589 4.51532C68.7589 5.0411 68.619 5.52049 68.3391 5.93802C68.0593 6.35555 67.6396 6.71123 67.0799 7.00505C66.3492 7.37619 65.2299 7.57722 63.7686 7.57722H59.8354V2.07199H57.6745V8.38136L57.659 8.47414C57.6434 8.4896 57.6279 8.52053 57.5968 8.536L57.3325 8.7061L57.317 8.72157V8.98446H63.7686C65.0123 8.98446 65.9917 8.90714 66.6757 8.78342C67.6085 8.58239 68.448 8.24218 69.1475 7.77825C69.8627 7.29887 70.3757 6.74216 70.6711 6.12359C70.8887 5.67513 70.9975 5.18028 70.9975 4.63904C71.0131 4.23697 70.9509 3.88129 70.8421 3.52562Z" fill="#C4921B"/>
<path d="M46.4988 1.66992L39.4875 8.96899H42.7211V8.65971H42.6123C42.5657 8.65971 42.5035 8.65971 42.4569 8.64424C42.3947 8.62878 42.3636 8.61332 42.3325 8.61332L47.7581 2.99984L46.4988 1.66992Z" fill="#C4921B"/>
<path d="M53.6646 8.67518V8.98446H56.8982L48.3478 0.0152588L47.1042 1.31425L48.4878 2.78334L49.918 4.2215H47.4928L46.1714 5.59781L46.4512 5.79885L46.7621 5.62874C46.7932 5.61327 46.8243 5.59781 46.8554 5.59781C46.871 5.59781 46.9487 5.59781 47.0886 5.59781H51.2239L54.0844 8.62878C54.0844 8.62878 54.0377 8.67518 53.789 8.67518H53.6646Z" fill="#C4921B"/>
<path d="M28.9616 0.463819L29.2259 0.293714V0.0308228H26.3499V0.293714L26.6452 0.479283C26.7074 0.525675 26.7385 0.572068 26.7385 0.602996V8.38146L26.723 8.47424C26.6919 8.48971 26.6608 8.52063 26.6452 8.5361L26.3499 8.72167V8.98456H29.2259V8.72167L28.9616 8.5361C28.9305 8.50517 28.8994 8.4897 28.8994 8.4897V0.602996V0.525676L28.9616 0.463819Z" fill="#C4921B"/>
<path d="M14.6911 7.25257H14.5667H14.2402L13.8671 7.46907C13.7583 7.53093 13.7117 7.54639 13.6961 7.56186L7.24449 7.57732C5.76761 7.57732 4.64829 7.39175 3.91762 7.00515C2.7983 6.43298 2.26973 5.61338 2.26973 4.49996C2.26973 4.00511 2.40965 3.52572 2.70502 3.09272C3.26468 2.27312 4.05754 1.71641 5.20795 1.51538C5.51887 1.45352 5.7987 1.45352 6.0008 1.45352C6.32727 1.45352 9.32767 1.45352 9.32767 1.45352C9.52977 1.43806 9.49868 1.49992 9.49868 1.51538L9.46758 1.74734H9.74741L11.1777 0.0308228H7.1823C6.26508 0.0308228 5.54996 0.061752 5.05249 0.123609C4.7882 0.154537 4.53946 0.200928 4.29073 0.262785C3.63779 0.417426 3.0004 0.649389 2.40965 0.9896C1.44579 1.53084 0.746213 2.22673 0.342014 3.06179C0.124369 3.52572 0 4.0515 0 4.62367C0 6.06183 0.777306 7.22165 2.31637 8.04124C3.01595 8.42785 3.79325 8.69074 4.64829 8.82992C5.28568 8.93817 6.15626 8.98456 7.24449 8.98456H13.2453L14.6911 7.25257Z" fill="#C4921B"/>
<path d="M11.3945 5.10314L12.7937 3.37115H3.38825L2.43994 4.77839H10.9281C11.0836 4.79385 11.1458 4.84025 11.1458 4.85571L11.1147 5.10314H11.3945Z" fill="#C4921B"/>
<path d="M12.1255 0.0308228L10.8196 1.67002L11.0839 1.76281L11.115 1.77827L11.5192 1.57724C11.628 1.49992 11.7368 1.46899 11.8612 1.46899H17.0536V8.39692L17.038 8.4897C17.0225 8.52063 16.9914 8.53609 16.9758 8.53609L16.6805 8.73713V9.00002H19.5876V8.73713L19.2922 8.55156L19.2145 8.4897C19.2145 8.47424 19.2145 8.44331 19.2145 8.41238V1.46899H23.8317C24.0027 1.48445 24.0338 1.53084 24.0338 1.53084V1.77827H24.2981L25.7283 0.0462878H12.1255V0.0308228Z" fill="#C4921B"/>
</svg>
