<svg width="24" height="24" viewBox="0 0 24 24" fill="none" xmlns="http://www.w3.org/2000/svg">
<path fill-rule="evenodd" clip-rule="evenodd" d="M11.999 17.6572L9.40625 20.2499H14.5917L11.999 17.6572Z" fill="#BD8B13"/>
<path fill-rule="evenodd" clip-rule="evenodd" d="M8.56889 9.89835C8.56889 8.00868 10.1064 6.47121 11.9961 6.47121C13.8858 6.47121 15.4233 8.00868 15.4233 9.89835C15.4233 11.7655 13.8551 14.7382 11.9961 14.7382C10.1371 14.7382 8.56889 11.7655 8.56889 9.89835ZM11.9961 5.55469C9.60109 5.55469 7.65234 7.50339 7.65234 9.89835C7.65234 12.1628 9.51711 15.6547 11.9961 15.6547C14.4751 15.6547 16.3399 12.1628 16.3399 9.89835C16.3399 7.50339 14.3911 5.55469 11.9961 5.55469Z" fill="#4E4C4A"/>
<path fill-rule="evenodd" clip-rule="evenodd" d="M1.91655 12.0002C1.91655 6.44014 6.43978 1.91749 12 1.91749C17.5597 1.91749 22.0835 6.44014 22.0835 12.0002C22.0835 17.5603 17.5597 22.0835 12 22.0835C6.43978 22.0835 1.91655 17.5603 1.91655 12.0002ZM1 12.0002C1 18.0656 5.93448 23 12 23C18.0655 23 23 18.0656 23 12.0002C23 5.93533 18.0655 1 12 1C5.93448 1 1 5.93533 1 12.0002Z" fill="#4E4C4A"/>
<path fill-rule="evenodd" clip-rule="evenodd" d="M14.6622 15.9384L14.3128 15.8779L14.1665 16.2014C13.9505 16.6788 13.6199 17.1947 13.2188 17.5795L13.8642 18.2244C14.2581 17.8439 14.5912 17.3799 14.8421 16.9039C15.8331 17.1001 16.7688 17.3952 17.6278 17.782C17.8327 17.8751 18.0126 18.021 18.1479 18.2057L18.4042 18.5536L19.0381 17.8679L18.8865 17.662C18.658 17.3521 18.3529 17.104 18.0045 16.9471C16.9785 16.4845 15.8542 16.1452 14.6622 15.9384Z" fill="#4E4C4A"/>
<path fill-rule="evenodd" clip-rule="evenodd" d="M9.67906 15.8779L9.32924 15.9384C8.14061 16.1447 7.01964 16.4825 5.99704 16.9427C5.63234 17.1068 5.31707 17.3679 5.08577 17.698L4.96484 17.8703L5.60163 18.5584L5.8358 18.2244C5.97304 18.0291 6.15923 17.8746 6.37373 17.7782C7.22886 17.3928 8.16124 17.0996 9.14929 16.9039C9.4017 17.3813 9.73664 17.8473 10.1325 18.2283L10.7765 17.5843C10.4161 17.245 10.0845 16.7733 9.82542 16.2014L9.67906 15.8779Z" fill="#4E4C4A"/>
</svg>
