<svg width="24" height="24" viewBox="0 0 24 24" fill="none" xmlns="http://www.w3.org/2000/svg">
<path fill-rule="evenodd" clip-rule="evenodd" d="M8.81445 2L11.6585 4.843L14.5015 2H8.81445Z" fill="#BD8B13"/>
<mask id="mask0" mask-type="alpha" maskUnits="userSpaceOnUse" x="8" y="12" width="8" height="10">
<path d="M8 12.083H15.174V21.62H8V12.083Z" fill="#4E4C4A"/>
</mask>
<g mask="url(#mask0)">
<path fill-rule="evenodd" clip-rule="evenodd" d="M11.5871 20.59C10.1851 20.59 8.90713 19.443 9.04313 18.047C9.14113 17.049 9.81913 14.115 9.81913 14.115C9.93313 13.53 10.6051 13.088 11.3821 13.088H11.7921C12.5691 13.088 13.2401 13.53 13.3551 14.115C13.3551 14.115 14.0331 17.049 14.1301 18.047C14.2671 19.443 12.9901 20.59 11.5871 20.59ZM14.3411 13.923C14.1331 12.856 13.0611 12.083 11.7911 12.083H11.3811C10.1131 12.083 9.04113 12.856 8.83113 13.923C8.83113 13.923 8.11713 17.001 8.01413 18.047C7.82213 20.007 9.61713 21.62 11.5871 21.62C13.5571 21.62 15.3521 20.008 15.1601 18.047C15.0571 17.001 14.3411 13.923 14.3411 13.923Z" fill="#4E4C4A"/>
</g>
<path fill-rule="evenodd" clip-rule="evenodd" d="M11.6581 7.553C12.4771 7.553 13.1431 8.219 13.1431 9.037C13.1431 9.856 12.4771 10.521 11.6581 10.521C11.2647 10.5205 10.8875 10.364 10.6093 10.0858C10.3311 9.80757 10.1746 9.43042 10.1741 9.037C10.1741 8.219 10.8401 7.553 11.6581 7.553ZM11.6581 11.573C12.3305 11.5722 12.9752 11.3048 13.4508 10.8294C13.9264 10.354 14.194 9.70944 14.1951 9.037C14.1943 8.36439 13.9268 7.71955 13.4511 7.24395C12.9755 6.76834 12.3307 6.50079 11.6581 6.5C10.9855 6.50079 10.3406 6.76834 9.86504 7.24395C9.38943 7.71955 9.12189 8.36439 9.12109 9.037C9.12189 9.70961 9.38943 10.3544 9.86504 10.8301C10.3406 11.3057 10.9855 11.5732 11.6581 11.574" fill="#4E4C4A"/>
</svg>
