<svg width="24" height="24" viewBox="0 0 24 24" fill="none" xmlns="http://www.w3.org/2000/svg">
<g clip-path="url(#clip0)">
<path d="M12.0374 21.1668L9.20947 24H14.8653L12.0374 21.1668Z" fill="#BD8B13"/>
<path d="M23.3918 8.41958C22.6794 6.17439 21.3174 4.19076 19.4781 2.71931C17.6387 1.24787 15.4044 0.354644 13.0576 0.152509C10.7108 -0.0496255 8.35673 0.448398 6.29285 1.58365C4.22896 2.7189 2.54789 4.44044 1.46204 6.53074C0.0072896 9.33492 -0.274267 12.6021 0.679279 15.6138C1.63283 18.6255 3.74341 21.1353 6.54697 22.5912C7.15517 22.8956 7.78681 23.1508 8.43581 23.3542L8.49984 23.2902L9.23083 22.5592C8.4626 22.3546 7.71848 22.0684 7.01117 21.7055C4.7684 20.5464 2.99695 18.6455 1.99868 16.3266C1.00041 14.0078 0.837101 11.4145 1.53658 8.98879C2.23605 6.56304 3.75503 4.45489 5.83467 3.02359C7.91431 1.59228 10.4259 0.926392 12.9415 1.13939C15.4571 1.35238 17.821 2.43108 19.6304 4.19167C21.4397 5.95225 22.5826 8.28578 22.8643 10.7946C23.146 13.3034 22.549 15.8323 21.175 17.9503C19.8011 20.0683 17.7353 21.6443 15.3295 22.4098C15.1641 22.4632 14.9987 22.4952 14.8333 22.5432L15.5696 23.2795L15.6497 23.3542C18.6558 22.3972 21.1594 20.2866 22.6109 17.4856C24.0624 14.6846 24.3433 11.4221 23.3918 8.41424V8.41958Z" fill="#4E4C4A"/>
<path d="M16.1778 12.5763C16.4127 12.5474 16.6304 12.438 16.7938 12.2669C16.9572 12.0957 17.0563 11.8732 17.0742 11.6372C17.3464 10.1272 17.7786 9.50291 18.008 9.50291C18.1307 9.50291 18.5736 9.94044 18.8884 11.221C19.1658 12.3255 19.4753 13.2966 19.4913 13.3553C19.5224 13.4566 19.5855 13.5452 19.6711 13.6077C19.7567 13.6702 19.8602 13.7033 19.9662 13.7021C20.0121 13.7095 20.059 13.7095 20.1049 13.7021C20.2302 13.6671 20.3368 13.5844 20.4017 13.4716C20.4665 13.3588 20.4845 13.2251 20.4517 13.0992C20.3259 12.4164 20.402 11.7118 20.6705 11.0716L20.7025 10.9756C21.1561 9.81238 21.2361 9.59896 20.6705 8.84129L20.6172 8.76659C20.7203 8.67189 20.7944 8.54972 20.8306 8.41443C20.9373 8.0516 20.8039 7.59807 20.3984 6.88842C19.8648 5.92799 19.6621 5.55983 19.598 5.42644C19.587 5.30602 19.5319 5.19393 19.4433 5.11163C19.3524 5.03121 19.2367 4.98422 19.1154 4.9784C18.9942 4.97258 18.8746 5.00828 18.7763 5.07962C18.3815 5.38909 18.5149 5.61319 19.534 7.38998C19.6698 7.60662 19.7774 7.83972 19.8541 8.08362C19.7695 8.12546 19.695 8.18537 19.636 8.25912C19.577 8.33287 19.5349 8.41868 19.5127 8.51047C19.5051 8.62884 19.5215 8.74751 19.5609 8.85937C19.6004 8.97123 19.662 9.07397 19.7421 9.16143L19.8862 9.36418C20.1263 9.70033 20.1263 9.70034 19.8008 10.5487V10.5807C19.3633 9.0974 18.6856 8.35574 17.8746 8.4998C17.0636 8.64387 16.4606 9.64164 16.1298 11.4558C16.1298 11.5198 16.1031 11.5625 16.1298 11.5785C15.9698 11.5305 15.5162 11.157 15.1694 10.1645C14.9591 9.54586 14.5731 9.00187 14.0585 8.59913C13.544 8.19639 12.9232 7.95235 12.2721 7.89687H12.1867C11.9769 7.80631 11.7531 7.75218 11.5251 7.7368C11.5424 7.64571 11.5341 7.55161 11.5011 7.46496C11.4682 7.3783 11.4118 7.30248 11.3384 7.24591C11.2866 7.20569 11.2274 7.17612 11.1642 7.15891C11.101 7.14169 11.035 7.13717 10.97 7.1456C10.905 7.15403 10.8423 7.17526 10.7856 7.20804C10.7288 7.24083 10.6791 7.28453 10.6394 7.33662C10.5187 7.45708 10.433 7.60814 10.3917 7.77358C10.3503 7.93902 10.3548 8.11261 10.4046 8.2757C10.5807 8.66521 10.9969 8.69722 11.333 8.7239C11.4695 8.72596 11.6054 8.74205 11.7385 8.77192C11.6889 9.00469 11.5537 9.21034 11.3597 9.34818C11.089 9.60045 10.7613 9.78351 10.4046 9.88175C10.1005 9.34818 9.12404 7.83284 8.32369 7.87552C8.17529 7.8904 8.03574 7.95308 7.92604 8.05412C7.81634 8.15516 7.74242 8.2891 7.71542 8.43577C7.54468 9.10807 7.52867 10.8155 8.08892 11.6852C8.17289 11.8237 8.28526 11.9429 8.41861 12.0349C8.55196 12.1268 8.70327 12.1895 8.8626 12.2188C9.16316 12.2761 9.46922 12.2994 9.775 12.2882C9.58091 12.508 9.37425 12.7165 9.15606 12.9124C8.81221 13.2028 8.50733 13.5364 8.24899 13.9049C8.12216 14.1317 8.04728 14.3839 8.02975 14.6431C8.01222 14.9024 8.05247 15.1624 8.14761 15.4042C8.265 15.8311 8.29701 16.0178 8.06757 16.2739C7.72474 16.6764 7.4995 17.1657 7.41662 17.6879C7.39472 17.9288 7.31972 18.1619 7.19702 18.3704C7.07432 18.5789 6.90696 18.7576 6.70697 18.8938C6.64828 18.9311 6.55757 18.9898 6.34414 18.8938C5.60248 18.4509 4.91951 16.7595 4.96219 16.2259C4.97094 15.6178 4.86598 15.0134 4.65272 14.4438C4.4799 13.9494 4.37228 13.4346 4.33258 12.9124V12.587C4.33258 12.1014 4.33258 11.8026 4.03378 11.6052C3.90514 11.5356 3.76119 11.4992 3.61493 11.4992C3.46867 11.4992 3.32472 11.5356 3.19608 11.6052C3.0947 11.6425 2.96664 11.6852 2.80123 11.7332C2.68893 11.7757 2.56719 11.7867 2.44908 11.7653C2.35523 11.6727 2.22872 11.6208 2.09692 11.6208C1.96512 11.6208 1.83861 11.6727 1.74476 11.7653C1.6983 11.8114 1.66143 11.8662 1.63626 11.9267C1.6111 11.9871 1.59814 12.0519 1.59814 12.1174C1.59814 12.1829 1.6111 12.2477 1.63626 12.3081C1.66143 12.3686 1.6983 12.4234 1.74476 12.4696C1.92381 12.6207 2.14103 12.7195 2.37258 12.7553C2.60412 12.7911 2.84105 12.7624 3.05735 12.6723L3.3188 12.5923V12.9231C3.37056 13.5445 3.5107 14.1554 3.73498 14.7372C3.90502 15.1896 3.99528 15.668 4.00177 16.1512C3.90039 17.0423 4.74877 19.0912 5.86926 19.7421C6.08894 19.8785 6.3417 19.9523 6.60026 19.9556C6.83824 19.9486 7.06942 19.8746 7.26722 19.7421C7.57318 19.5368 7.83217 19.2689 8.02714 18.9562C8.22211 18.6435 8.34864 18.2931 8.39839 17.928C8.45079 17.5737 8.59419 17.2392 8.81457 16.9569C9.03037 16.7168 9.17392 16.4206 9.22867 16.1025C9.28343 15.7843 9.24716 15.4572 9.12404 15.1588C9.028 14.7906 8.99599 14.6252 9.12404 14.4438C9.3394 14.154 9.58636 13.8892 9.86037 13.6541C10.5113 13.0512 11.2477 12.3682 10.9275 11.5198C10.8787 11.3999 10.7878 11.3018 10.672 11.2439C10.5561 11.1859 10.4232 11.1721 10.2979 11.205C9.88639 11.3014 9.45925 11.3105 9.04401 11.2317C8.99889 11.2048 8.96198 11.166 8.93729 11.1196C8.6639 10.4829 8.55915 9.78641 8.63316 9.0974C9.00563 9.50192 9.32809 9.94978 9.59359 10.4313C9.68816 10.6204 9.8507 10.7666 10.0486 10.8409C10.2465 10.9151 10.4652 10.9117 10.6607 10.8315C11.3597 10.6821 12.5549 9.95645 12.731 8.99069C13.0722 9.10753 13.3817 9.30176 13.6354 9.55817C13.889 9.81458 14.0798 10.1262 14.193 10.4687C14.6412 11.8186 15.4148 12.6403 16.1778 12.5763Z" fill="#4E4C4A"/>
<path d="M10.1379 16.4818C9.93467 16.6915 9.78117 16.9443 9.68881 17.2214C9.59645 17.4985 9.56759 17.7928 9.60437 18.0825C9.6175 18.2052 9.67536 18.3187 9.7669 18.4014C9.85844 18.4841 9.97724 18.5301 10.1006 18.5307H10.1379C10.2672 18.5172 10.3862 18.454 10.4698 18.3545C10.5534 18.2549 10.5951 18.1268 10.5861 17.9971C10.5658 17.8613 10.5753 17.7227 10.614 17.5909C10.6527 17.4591 10.7197 17.3374 10.8102 17.2341C10.9023 17.1428 10.9549 17.0191 10.9569 16.8895C10.9589 16.7599 10.9101 16.6346 10.8209 16.5405C10.7321 16.4521 10.615 16.3977 10.4901 16.387C10.3652 16.3762 10.2405 16.4098 10.1379 16.4818Z" fill="#4E4C4A"/>
<path d="M18.6322 18.4883C18.594 18.6156 18.608 18.7529 18.671 18.87C18.7341 18.9871 18.841 19.0743 18.9683 19.1126C19.0162 19.1177 19.0645 19.1177 19.1124 19.1126C19.2197 19.1074 19.3229 19.07 19.4085 19.0053C19.4942 18.9406 19.5584 18.8515 19.5926 18.7497C20.4036 15.9858 21.6469 15.6123 21.6949 15.5963C21.8225 15.5693 21.9344 15.4932 22.0063 15.3843C22.0782 15.2755 22.1043 15.1427 22.079 15.0147C22.0544 14.8848 21.9795 14.7699 21.8706 14.695C21.7617 14.6201 21.6276 14.5911 21.4975 14.6146C21.3054 14.6732 19.6353 15.0894 18.6322 18.4883Z" fill="#4E4C4A"/>
<path d="M3.77763 5.86918C3.687 5.95393 3.631 6.06928 3.62047 6.19292C3.60993 6.31656 3.6456 6.43971 3.72058 6.53858C3.79556 6.63746 3.90453 6.70502 4.02643 6.72822C4.14834 6.75142 4.27451 6.72861 4.38057 6.6642C4.42325 6.63218 5.38368 5.9172 5.93859 6.58416C6.4028 7.14441 6.80831 7.56593 7.35789 7.56593C7.5971 7.55849 7.83115 7.49449 8.04086 7.37918C8.15902 7.31974 8.24874 7.2158 8.29026 7.09022C8.33179 6.96464 8.32173 6.82771 8.26229 6.70955C8.20286 6.59139 8.09892 6.50167 7.97334 6.46015C7.84776 6.41862 7.71082 6.42868 7.59266 6.48812C7.34188 6.61084 7.28319 6.64285 6.70693 5.95455C5.77852 4.83938 4.3859 5.41564 3.77763 5.86918Z" fill="#4E4C4A"/>
<path d="M7.34727 3.62292C7.26391 3.52783 7.14949 3.46544 7.0244 3.44687C6.89931 3.4283 6.77169 3.45477 6.6643 3.52154C6.6105 3.55887 6.56462 3.60647 6.5293 3.66161C6.49398 3.71675 6.46992 3.77833 6.45852 3.84281C6.44711 3.90729 6.44857 3.97339 6.46283 4.0373C6.47709 4.10121 6.50385 4.16167 6.54158 4.21518C6.67913 4.39285 6.85792 4.53429 7.06247 4.62727C7.26701 4.72024 7.49114 4.76194 7.71544 4.74875C7.95357 4.7451 8.19026 4.71103 8.41975 4.64738C8.62007 4.60843 8.81058 4.52984 8.9801 4.41622C9.14961 4.3026 9.29471 4.15624 9.40686 3.98575C9.51517 3.79669 9.54759 3.57354 9.49756 3.36147C9.67139 3.31444 9.85112 3.29287 10.0311 3.29744C10.0841 3.29559 10.1365 3.28476 10.1859 3.26543C10.4324 3.28886 10.6799 3.29954 10.9275 3.29744C11.704 3.33371 12.4769 3.17215 13.1739 2.8279C13.2299 2.79287 13.2785 2.74713 13.3169 2.69331C13.3553 2.63949 13.3827 2.57864 13.3976 2.51423C13.4124 2.44982 13.4145 2.38311 13.4035 2.31792C13.3926 2.25272 13.369 2.19031 13.3339 2.13426C13.2989 2.0782 13.2532 2.0296 13.1993 1.99122C13.1455 1.95283 13.0847 1.92543 13.0203 1.91057C12.9559 1.8957 12.8891 1.89367 12.824 1.90459C12.7588 1.9155 12.6963 1.93915 12.6403 1.97419C12.0214 2.35302 10.7194 2.31567 10.2659 2.26765C10.1912 2.26463 10.1166 2.27736 10.0471 2.305H10.0151C9.24678 2.305 8.76657 2.49175 8.54781 2.87059C8.49251 2.97056 8.45745 3.08044 8.44464 3.19397C8.43182 3.30749 8.44149 3.42243 8.47311 3.53221C8.36895 3.60636 8.25104 3.65897 8.12629 3.68695C7.67809 3.79366 7.41664 3.69762 7.34727 3.62292Z" fill="#4E4C4A"/>
</g>
<defs>
<clipPath id="clip0">
<rect width="24" height="24" fill="white"/>
</clipPath>
</defs>
</svg>
