<svg width="254" height="23" viewBox="0 0 254 23" fill="none" xmlns="http://www.w3.org/2000/svg">
<path d="M12.0843 3.03264C12.3637 2.40154 12.6431 1.9808 12.8527 1.84055C13.1321 1.63018 13.6211 1.56006 14.1799 1.56006C14.5291 1.56006 14.8085 1.56006 14.9482 1.63018C15.0181 1.63018 15.0879 1.7003 15.1578 1.7003C15.2276 1.77043 15.2276 1.84055 15.2276 1.91067C15.7865 4.92596 16.4151 7.73088 16.9739 10.3956C16.9739 10.4657 17.0438 10.5358 17.0438 10.5358C17.0438 10.5358 17.1136 10.5358 17.2533 10.5358C17.7423 10.3956 18.3011 10.3956 18.9996 10.5358C19.6283 10.6761 20.1173 11.0267 20.4665 11.4474C20.7459 11.9383 20.8856 12.4291 20.8856 12.9901C20.8856 13.0602 20.8856 13.2005 20.8856 13.3407C20.8856 13.4109 20.8856 13.4109 20.8158 13.481C20.7459 13.5511 20.7459 13.481 20.7459 13.481L20.6761 13.4109C20.4665 12.8499 19.9776 12.4993 19.0695 12.5694C18.6504 12.5694 18.1614 12.6395 17.6725 12.7797C17.6026 12.7797 17.5327 12.8499 17.5327 12.9901C17.7423 13.6913 17.9519 14.4627 18.1614 15.1639C18.371 15.9353 18.5805 16.6365 18.7901 17.2676C18.9996 17.8987 19.1393 18.4597 19.3489 18.9506C19.4886 19.4414 19.6283 19.8622 19.768 20.2829C19.9077 20.7036 19.9776 20.914 19.9776 20.9841C20.0474 21.2646 20.1173 21.475 20.1173 21.5451C20.1173 22.036 19.9077 22.2464 19.5584 22.2464C19.2092 22.2464 18.7202 22.1061 17.9519 21.8256C17.2533 21.5451 16.485 21.1945 15.7865 20.7738C12.8527 19.0207 11.3858 17.2676 11.3858 15.5145C11.3858 14.9536 11.5954 14.3926 11.9446 13.7615C12.2939 13.1304 12.713 12.7096 13.202 12.359C13.6211 12.0084 14.0402 11.7279 14.3894 11.5175C14.5291 11.4474 14.599 11.3072 14.5291 11.1669C14.5291 11.0267 14.2497 9.62421 13.6909 7.02965C13.6211 6.74916 13.5512 6.74916 13.4115 7.02965C13.0622 7.73089 12.3637 9.41384 11.1763 12.0785C10.0586 14.7432 9.08071 16.7768 8.38219 18.2493C7.54397 19.9323 6.91531 20.9841 6.4962 21.3348C6.21679 21.5451 5.86754 21.7555 5.44843 21.8957C5.02932 22.036 4.6102 22.1061 4.26095 22.1061C3.07347 22.1061 2.02569 21.7555 1.18747 21.0543C0.349256 20.353 0 19.3713 0 18.1792C0 17.6182 0.209556 17.0572 0.628665 16.5664C1.04778 16.0755 1.46688 15.7249 2.09555 15.5847C2.1654 15.5847 2.1654 15.5847 2.23525 15.5847C2.23525 15.5847 2.23525 15.6548 2.1654 15.7249C1.95584 15.8652 1.81614 16.1456 1.67644 16.4963C1.53674 16.8469 1.46688 17.1274 1.46688 17.4079C1.46688 17.8286 1.60659 18.1792 1.81614 18.5298C2.0257 18.8804 2.3051 19.0908 2.65436 19.2311C3.21318 19.5116 3.77198 19.5116 4.3308 19.1609C4.4705 19.0908 4.68006 18.8103 4.88961 18.5298C5.72783 17.1274 7.68368 13.1304 10.6873 6.67904C10.9667 5.83756 11.4557 4.64547 12.0843 3.03264ZM15.7865 17.6884C15.8563 17.6884 15.8563 17.6884 15.9262 17.6884C15.9262 17.6884 15.9262 17.6182 15.9262 17.5481C15.7166 16.2158 15.4372 14.8834 15.0879 13.6913C15.0879 13.6212 15.0181 13.5511 14.8784 13.6212C14.1799 13.9718 13.6909 14.2523 13.4115 14.6029C13.0622 14.8834 12.9225 15.1639 12.9225 15.4444C12.9225 15.8652 13.202 16.356 13.8306 16.7768C14.3894 17.1274 15.0879 17.478 15.7865 17.6884Z" fill="#BD8B13"/>
<path d="M24.6581 2.75213L27.1029 0.648438C27.1728 0.648438 27.2427 0.648438 27.2427 0.648438C27.3125 0.648438 27.3125 0.718561 27.3125 0.788684C26.8934 3.8741 26.5441 7.31013 26.3346 11.0266C26.3346 11.5876 26.2647 12.4992 26.1949 13.6212C26.1949 13.7614 26.2647 13.8316 26.3346 13.6913C27.1029 12.7096 28.2206 12.2187 29.7573 12.2187C30.8749 12.2187 31.783 12.5694 32.4815 13.2706C33.18 13.9718 33.5293 14.8834 33.5293 16.0054C33.5293 16.7066 33.3896 17.478 33.0403 18.3194C32.6911 19.1609 32.1323 19.8621 31.3639 20.4933C30.9448 20.8439 30.386 21.1244 29.5478 21.475C28.7095 21.7555 27.8713 21.9658 26.9632 21.9658C25.9155 21.9658 25.0074 21.8957 24.239 21.7555C23.4707 21.6152 22.9118 21.3347 22.353 20.914C21.5148 20.2128 21.0957 19.0207 21.0957 17.2676C21.0957 17.0572 21.0957 16.917 21.0957 16.7767C21.0957 16.4261 21.1656 16.4261 21.3053 16.7066C21.5148 17.2676 22.0038 17.6883 22.6324 18.1091C23.2611 18.5298 23.9596 18.7402 24.6581 18.8804C25.3567 19.0207 26.0552 19.0908 26.6838 19.0908C27.7316 19.0908 28.5 18.9506 29.1286 18.6701C29.7573 18.3896 30.2463 17.9688 30.5955 17.4078C30.8749 16.917 31.0845 16.4261 31.0845 15.9353C31.0845 15.3743 30.9448 14.9535 30.5955 14.6029C30.2463 14.3224 29.7573 14.1121 29.0588 14.1121C28.2206 14.1121 27.5919 14.3926 27.0331 14.9535C26.4743 15.5145 26.1949 16.2859 26.1949 17.1273V17.8286C26.1949 18.0389 26.125 18.1091 25.9853 17.9688L23.8199 16.7066C23.6802 16.6365 23.5405 16.4261 23.5405 16.2158C23.5405 13.8316 23.6104 12.0785 23.6802 11.0266C23.8199 8.50222 24.0295 5.97779 24.3089 3.45336C24.3089 3.24299 24.3787 3.10274 24.3787 3.03262C24.4486 2.9625 24.5184 2.89237 24.6581 2.75213Z" fill="#BD8B13"/>
<path d="M41.2137 18.3892C41.2137 17.3374 41.2835 15.9349 41.4232 14.0416C41.4232 13.9013 41.4931 13.7611 41.6328 13.6209L43.5188 12.008C43.6585 11.8678 43.7283 11.9379 43.7283 12.1483C43.7283 12.569 43.6585 13.13 43.5886 13.9715C43.5188 14.8129 43.5188 15.5142 43.4489 16.0752C43.3791 16.6361 43.3791 17.0569 43.3791 17.1971C43.3791 17.7581 43.5188 18.1087 43.7982 18.3191C44.4269 18.7398 45.754 18.8801 47.64 18.8801C49.3165 18.8801 50.4341 18.6697 50.9231 18.249C51.2723 17.9685 51.4819 17.4776 51.6216 16.7063C51.6914 16.4258 51.7613 16.4258 51.8311 16.7063C52.0407 17.688 52.1804 18.4593 52.1804 19.0904C52.1804 19.9319 51.9708 20.563 51.6216 21.0539C51.2025 21.5448 50.4341 21.7551 49.3165 21.8252C48.8974 21.8252 47.7797 21.8252 46.0334 21.8252C43.7283 21.8252 42.3313 21.4746 41.8423 20.7734C41.7725 20.7033 41.7725 20.7033 41.7026 20.7734C41.0041 21.4045 40.1659 21.7551 39.188 21.8252C38.2799 21.8954 37.5115 21.7551 36.9527 21.6149C36.3939 21.4045 35.8351 21.0539 35.3461 20.6332C34.6476 20.002 34.2984 18.9502 34.2285 17.5477C34.2285 16.6361 34.2984 15.7947 34.5778 14.8831C34.7175 14.4623 34.927 13.9715 35.1366 13.4105C35.3461 12.8495 35.6256 12.4989 35.8351 12.2885C35.9748 12.1483 36.0447 12.1483 36.1145 12.2184L37.7211 13.2702C37.8608 13.3404 37.8608 13.4105 37.8608 13.4806C37.8608 13.5507 37.791 13.6209 37.7211 13.7611C37.3718 14.252 36.7432 15.1636 35.905 16.4258C35.7653 16.7063 35.6255 16.9166 35.6255 17.1971C35.6255 17.688 35.8351 18.1087 36.2542 18.4593C36.8829 18.8801 37.7211 19.0904 38.9086 19.0904C39.7468 19.0904 40.3755 18.9502 40.9343 18.7398C41.1438 18.5996 41.2137 18.5295 41.2137 18.3892ZM47.7797 12.7794L49.1069 14.1117C49.1768 14.1818 49.1768 14.252 49.1069 14.3922L47.7797 15.7245C47.7099 15.7947 47.64 15.7947 47.5003 15.7245L46.1732 14.3922C46.1033 14.3221 46.1033 14.252 46.1732 14.1117L47.5003 12.7794C47.64 12.7093 47.7099 12.7093 47.7797 12.7794Z" fill="#BD8B13"/>
<path d="M68.3164 22.1063C65.3128 22.1063 63.2871 21.6856 62.3091 20.774C61.4011 19.9325 60.9121 18.53 60.9121 16.4263C60.9121 16.216 60.9121 16.0056 60.9121 15.7952C60.9121 15.655 60.982 15.5849 60.982 15.5849C60.982 15.5849 61.0518 15.655 61.1217 15.7952C61.2614 16.2861 61.6106 16.777 62.0996 17.1276C62.5885 17.5483 63.1474 17.8288 63.8459 18.1093C64.5444 18.3898 65.1032 18.53 65.8017 18.6703C66.4304 18.8105 67.0591 18.8807 67.6179 18.8807C68.6656 18.8807 69.5039 18.8105 70.2722 18.6002C72.2979 18.1093 73.695 16.9873 74.603 15.3044C75.1618 14.1824 75.5111 12.78 75.5111 11.2372C75.5111 9.76466 75.1618 8.43232 74.5332 7.31035C73.8347 6.18839 72.9266 5.34691 71.5994 4.85605C70.7612 4.50543 69.9928 4.36519 69.2943 4.36519C68.4561 4.36519 67.8274 4.64568 67.548 5.13654C67.4083 5.41703 67.2686 5.83777 67.1988 6.32863C67.1289 7.31035 66.9892 9.13355 66.9194 11.7281C66.7796 14.3227 66.7796 16.216 66.7098 17.4782C66.7098 17.6886 66.6399 17.7587 66.4304 17.6184L64.1951 16.4263C63.9856 16.2861 63.9157 16.1459 63.9157 15.9355C63.9157 14.6733 63.9856 12.9202 64.1253 10.6061C64.3348 5.69753 64.5444 2.61211 64.6142 1.3499C64.6142 1.20965 64.6841 1.13953 64.6841 1.0694C64.6841 0.999281 64.8238 1.13953 64.9635 1.20965C65.1032 1.3499 65.3128 1.42002 65.5223 1.56027C65.7319 1.70051 66.0113 1.70051 66.3605 1.70051C66.7098 1.70051 66.9194 1.77063 67.1289 1.77063C67.3385 1.77063 67.6179 1.77063 68.1068 1.77063C68.5958 1.77063 68.8752 1.77063 68.945 1.77063C70.5516 1.77063 72.0884 2.12125 73.5553 2.82248C75.0221 3.52371 76.1398 4.50543 77.0478 5.90789C77.6765 6.88962 78.1655 7.87134 78.4449 8.78294C78.7243 9.69454 78.864 10.8165 78.864 12.0086C78.864 14.7434 78.2353 16.9873 76.978 18.6002C75.0221 20.9142 72.2281 22.1063 68.3164 22.1063Z" fill="#BD8B13"/>
<path d="M82.7041 16.2155C82.7041 16.3558 82.7041 16.4259 82.774 16.4259C82.8438 16.4259 82.9137 16.4259 82.9836 16.2857C83.9615 14.9533 84.9394 13.7612 85.9872 12.8496C86.3364 12.5691 86.546 12.3588 86.7555 12.2886C86.9651 12.2185 87.1746 12.1484 87.3842 12.1484C87.8033 12.1484 88.1526 12.2886 88.432 12.5691C88.7114 12.8496 88.8511 13.2704 88.7812 13.9716C88.7812 14.1118 88.7114 14.5326 88.7114 15.1637C88.7114 15.7948 88.6415 16.3558 88.5717 16.8466C88.5717 17.618 88.7114 18.1089 88.9908 18.2491C89.6194 18.6698 91.0863 18.8101 93.3914 18.8101C95.2076 18.8101 96.6046 18.74 97.4428 18.6698C98.281 18.5997 98.9097 18.3893 99.1891 18.179C99.4685 17.9686 99.6781 17.5479 99.8178 16.8466C99.8876 16.4259 100.027 16.4259 100.097 16.8466C100.307 17.7582 100.377 18.4595 100.377 19.0204C100.377 19.4412 100.307 19.7217 100.237 20.0022C100.167 20.2827 100.027 20.4229 99.9575 20.6333C99.8876 20.7735 99.6781 20.9839 99.4685 21.1241C99.259 21.2644 98.9796 21.4748 98.6303 21.5449C98.281 21.615 97.8619 21.6851 97.373 21.6851L93.0422 21.615C90.9466 21.615 89.4797 21.5449 88.6415 21.3345C87.8033 21.1943 87.2445 20.8436 86.8952 20.3528C86.4761 19.7217 86.2666 18.8101 86.2666 17.618C86.2666 17.1973 86.3364 16.4259 86.4063 15.3039C86.4063 15.1637 86.4063 15.0234 86.3364 15.0234C86.2666 15.0234 86.1269 15.0234 85.9872 15.1637C84.4504 16.6363 83.0534 18.5997 81.7262 21.054C81.6564 21.1943 81.5865 21.3345 81.5167 21.4046C81.4468 21.4748 81.377 21.5449 81.2373 21.6851C81.0976 21.8254 80.9579 21.8254 80.8182 21.8254C80.3292 21.8254 80.1196 21.4748 80.0498 20.8436C79.9799 18.74 79.9799 15.3741 80.1196 10.8862C80.1895 8.64224 80.399 6.11781 80.7483 3.31289C80.7483 3.0324 80.8182 2.89215 80.8182 2.82203C80.8182 2.75191 80.888 2.68178 81.0277 2.54154L83.5424 0.437846C83.6122 0.367723 83.6821 0.367723 83.6821 0.437846C83.6821 0.507969 83.7519 0.507969 83.6821 0.648215C83.3328 3.31289 82.9835 6.74892 82.7041 10.9563C82.7041 12.7795 82.7041 14.5326 82.7041 16.2155ZM91.4356 13.3405L92.7628 12.0081C92.8326 11.938 92.9025 11.938 93.0422 12.0081L94.1598 13.1301C94.5789 13.5509 94.7186 14.0417 94.7186 14.6728C94.7186 15.5143 94.4392 16.2857 93.9502 17.057C93.8804 17.1271 93.8105 17.1271 93.8105 17.1271C93.7407 17.1271 93.7407 17.057 93.7407 16.9869C93.8105 16.2155 93.601 15.5844 93.2517 15.0936C93.1819 14.9533 92.9723 14.8131 92.6929 14.5326L91.5753 13.5509C91.3657 13.4807 91.3657 13.4106 91.4356 13.3405Z" fill="#BD8B13"/>
<path d="M113.647 17.1275C113.647 17.0574 113.717 16.9872 113.717 16.9872C113.787 16.9872 113.787 17.0574 113.787 17.1275C113.926 17.6885 114.066 18.4598 114.066 19.3013C114.066 19.722 113.996 20.0726 113.926 20.4233C113.647 21.405 112.599 21.8958 110.853 21.8958C109.596 21.8958 108.478 21.4751 107.5 20.7037C107.43 20.6336 107.43 20.6336 107.36 20.7037C106.522 21.5452 105.474 21.8958 104.287 21.8958C103.239 21.8958 102.401 21.6153 101.842 21.0544C101.283 20.5635 101.004 19.9324 101.004 19.161C101.004 18.2494 101.283 17.408 101.842 16.7067C102.401 16.0055 103.169 15.6549 104.147 15.6549C105.055 15.6549 106.033 16.1458 107.011 17.1275C107.081 17.1976 107.151 17.1976 107.151 17.0574C107.221 16.7769 107.221 16.4262 107.151 16.1458C107.151 16.0055 107.081 15.7951 107.011 15.6549C106.941 15.5146 106.802 15.2342 106.662 14.9537C106.452 14.6732 106.173 14.4628 105.894 14.2524C105.474 14.0421 105.055 13.9719 104.496 13.9719C103.938 13.9719 103.449 14.0421 103.03 14.2524C102.61 14.4628 102.191 14.7433 101.702 15.164C101.633 15.2342 101.563 15.2342 101.563 15.0939C101.633 13.9719 101.842 13.2707 102.261 12.9201C102.96 12.3591 104.008 12.0786 105.405 12.0786C106.173 12.0786 106.871 12.2189 107.43 12.5695C107.989 12.9201 108.548 13.3408 108.967 13.9719C109.316 14.5329 109.456 15.164 109.456 15.8653C109.456 16.7067 109.316 17.5482 108.967 18.3897C108.967 18.4598 108.967 18.5299 109.037 18.5299C109.735 18.8805 110.504 19.0909 111.272 19.0909C112.25 19.0909 112.879 18.8805 113.158 18.3897C113.368 18.1793 113.577 17.7586 113.647 17.1275ZM106.033 19.3714C106.103 19.3013 106.103 19.3013 106.033 19.2312C105.195 18.3897 104.427 17.8988 103.798 17.8988C103.449 17.8988 103.099 17.9689 102.82 18.1092C102.541 18.2494 102.401 18.5299 102.401 18.8805C102.401 19.2312 102.61 19.5117 103.03 19.722C103.449 19.9324 103.868 20.0025 104.287 20.0025C104.916 19.9324 105.544 19.722 106.033 19.3714Z" fill="#BD8B13"/>
<path d="M118.047 2.75145L120.492 0.64776C120.561 0.577637 120.631 0.577637 120.631 0.577637C120.701 0.577637 120.701 0.64776 120.701 0.717883C120.282 3.8033 119.933 7.23933 119.723 10.9558C119.723 11.5168 119.653 12.4284 119.584 13.5504C119.584 13.6906 119.653 13.7608 119.723 13.6205C120.492 12.6388 121.609 12.1479 123.146 12.1479C124.264 12.1479 125.172 12.4986 125.87 13.1998C126.569 13.901 126.918 14.8126 126.918 15.9346C126.918 16.6358 126.778 17.4072 126.429 18.2486C126.08 19.0901 125.521 19.7913 124.753 20.4225C124.333 20.7731 123.775 21.0536 122.936 21.4042C122.098 21.6847 121.26 21.895 120.352 21.895C119.304 21.895 118.396 21.8249 117.628 21.6847C116.859 21.5444 116.301 21.2639 115.742 20.8432C114.903 20.142 114.484 18.9499 114.484 17.1968C114.484 16.9864 114.484 16.8462 114.484 16.7059C114.484 16.3553 114.554 16.3553 114.694 16.6358C114.903 17.1968 115.392 17.6175 116.021 18.0383C116.65 18.459 117.348 18.6694 118.047 18.8096C118.745 18.9499 119.444 19.02 120.073 19.02C121.12 19.02 121.889 18.8797 122.517 18.5993C123.146 18.3188 123.635 17.898 123.984 17.337C124.264 16.8462 124.473 16.3553 124.473 15.8645C124.473 15.3035 124.333 14.8827 123.984 14.5321C123.635 14.2516 123.146 14.0413 122.447 14.0413C121.609 14.0413 120.981 14.3218 120.422 14.8827C119.863 15.4437 119.584 16.2151 119.584 17.0565V17.7578C119.584 17.9681 119.514 18.0383 119.374 17.898L117.209 16.6358C117.069 16.5657 116.929 16.3553 116.929 16.145C116.929 13.7608 116.999 12.0077 117.069 10.9558C117.209 8.43142 117.418 5.90699 117.698 3.38256C117.698 3.17219 117.767 3.03194 117.767 2.96182C117.837 2.96182 117.907 2.8917 118.047 2.75145Z" fill="#BD8B13"/>
<path d="M128.386 13.4101L130.831 11.657C130.901 11.5869 130.971 11.5167 131.041 11.5167C131.111 11.5167 131.111 11.5869 131.111 11.7271C131.111 12.1479 131.041 12.9192 130.971 14.0412C130.901 15.1631 130.901 16.0747 130.831 16.9162C130.831 17.7577 130.831 18.5291 130.831 19.3004C130.831 19.5809 130.831 19.7211 130.901 19.8614C130.901 20.0016 130.971 20.1419 131.041 20.3523C131.111 20.5626 131.18 20.7029 131.32 20.773C131.46 20.9132 131.669 20.9834 131.879 21.0535C132.228 21.1236 132.717 21.1937 133.136 21.1236C133.206 21.1236 133.276 21.1236 133.276 21.1937C133.276 21.2638 133.276 21.2638 133.136 21.334C132.368 21.7547 131.53 21.9651 130.622 21.9651C130.272 21.9651 129.853 21.895 129.504 21.6846C129.155 21.4742 128.805 21.2638 128.526 20.9132C128.177 20.4925 128.037 20.0016 128.037 19.3705C128.037 17.8979 128.037 16.0747 128.107 13.9711C128.177 13.7607 128.247 13.5503 128.386 13.4101ZM131.111 7.51974L132.438 8.85207C132.508 8.9222 132.508 8.99232 132.438 9.13257L131.111 10.4649C131.041 10.535 130.971 10.535 130.831 10.4649L129.504 9.13257C129.434 9.06244 129.434 8.99232 129.504 8.85207L130.831 7.51974C130.971 7.37949 131.041 7.37949 131.111 7.51974Z" fill="#BD8B13"/>
<path d="M140.981 18.7354V12.3542H139.584V11.5829L140.702 10.1804L142.797 7.37549H143.705V10.1804H146.918L146.15 12.3542H143.635V18.5251C143.635 19.4367 143.915 19.9275 144.683 19.9275C145.521 19.9275 146.15 19.4367 146.499 18.9458V21.33C146.15 21.6806 145.382 22.1714 144.055 22.1714C141.889 22.1714 140.981 20.9092 140.981 18.7354Z" fill="#BD8B13"/>
<path d="M147.758 16.0009C147.758 11.7935 150.412 9.83008 153.416 9.83008C156.629 9.83008 158.794 11.7935 158.794 16.0009C158.794 20.2083 156.14 22.1717 153.136 22.1717C149.993 22.1717 147.758 20.2083 147.758 16.0009ZM156.14 16.0009C156.14 13.6868 155.232 12.074 153.346 12.074C151.46 12.074 150.552 13.6868 150.552 16.0009C150.552 18.315 151.46 19.9278 153.346 19.9278C155.232 19.9278 156.14 18.315 156.14 16.0009Z" fill="#BD8B13"/>
<path d="M166.618 18.7354V12.3542H165.221V11.5829L166.338 10.1804L168.434 7.37549H169.342V10.1804H172.555L171.787 12.3542H169.272V18.5251C169.272 19.4367 169.552 19.9275 170.32 19.9275C171.158 19.9275 171.787 19.4367 172.136 18.9458V21.33C171.787 21.6806 171.018 22.1714 169.691 22.1714C167.526 22.1714 166.618 20.9092 166.618 18.7354Z" fill="#BD8B13"/>
<path d="M174.092 5.97314H176.816V11.1622C177.305 10.461 178.353 9.82991 179.75 9.82991C182.753 9.82991 183.941 11.3726 183.941 14.5282V21.8209H181.217V15.0891C181.217 12.8452 180.658 11.9336 179.121 11.9336C177.864 11.9336 177.095 12.5647 176.816 13.0556V21.8209H174.092V5.97314Z" fill="#BD8B13"/>
<path d="M185.896 16.0009C185.896 11.7935 188.621 9.83008 191.275 9.83008C193.86 9.83008 196.374 11.0222 196.374 15.2997V16.9125H188.691C188.83 18.5253 189.808 19.9278 191.974 19.9278C193.999 19.9278 195.187 19.2266 195.815 18.5253V20.9796C195.187 21.5406 193.929 22.1717 191.694 22.1717C188.202 22.1717 185.896 20.2083 185.896 16.0009ZM193.72 15.0192V14.9491C193.72 13.196 192.882 12.1441 191.275 12.1441C189.738 12.1441 188.83 13.5466 188.691 15.0192H193.72Z" fill="#BD8B13"/>
<path d="M202.52 10.1807H205.174L206.92 16.9826L209.505 10.1807H210.622L213.207 16.9826L214.883 10.1807H217.398L214.324 21.8211H212.648L209.994 14.8789L207.269 21.8211H205.663L202.52 10.1807Z" fill="#BD8B13"/>
<path d="M218.098 16.0009C218.098 11.7935 220.752 9.83008 223.756 9.83008C226.969 9.83008 229.134 11.7935 229.134 16.0009C229.134 20.2083 226.48 22.1717 223.476 22.1717C220.333 22.1717 218.098 20.2083 218.098 16.0009ZM226.48 16.0009C226.48 13.6868 225.572 12.074 223.686 12.074C221.8 12.074 220.892 13.6868 220.892 16.0009C220.892 18.315 221.8 19.9278 223.686 19.9278C225.572 19.9278 226.48 18.315 226.48 16.0009Z" fill="#BD8B13"/>
<path d="M231.23 10.1807H233.605L233.815 11.7935C233.885 10.5313 235.072 9.83008 236.19 9.83008C236.749 9.83008 237.168 9.97032 237.377 10.1106V12.5649C237.028 12.3545 236.609 12.2844 235.911 12.2844C235.072 12.2844 234.374 12.7051 233.955 13.4765V21.8211H231.23V10.1807Z" fill="#BD8B13"/>
<path d="M238.844 5.97314H241.568V21.8209H238.844V5.97314Z" fill="#BD8B13"/>
<path d="M243.662 16.2111C243.662 12.0037 245.828 9.90003 248.761 9.90003C249.599 9.90003 250.717 10.0403 251.276 10.6714V5.97314H254V21.8209H251.485L251.276 20.7691C250.927 21.4002 250.088 22.1014 248.342 22.1014C245.758 22.1716 243.662 20.3484 243.662 16.2111ZM251.346 12.8452C250.857 12.2141 250.019 12.0037 249.18 12.0037C247.294 12.0037 246.526 13.8269 246.526 16.141C246.526 18.455 247.225 19.9276 249.111 19.9276C250.298 19.9276 251.066 19.4368 251.416 18.8758V12.8452H251.346Z" fill="#BD8B13"/>
</svg>
