<?xml version="1.0" encoding="UTF-8"?>
<svg width="30px" height="30px" viewBox="0 0 30 30" version="1.1" xmlns="http://www.w3.org/2000/svg" xmlns:xlink="http://www.w3.org/1999/xlink">
    <!-- Generator: Sketch 57.1 (83088) - https://sketch.com -->
    <title>Atom/ Icon/ Social icon/ Youtube</title>
    <desc>Created with Sketch.</desc>
    <g id="Atom/-Icon/-Social-icon/-Youtube" stroke="none" stroke-width="1" fill="none" fill-rule="evenodd">
        <g id="social-1_round-youtube" fill="#444444" fill-rule="nonzero">
            <path d="M15,0 C6.75,0 0,6.75 0,15 C0,23.25 6.75,30 15,30 C23.25,30 30,23.25 30,15 C30,6.75 23.25,0 15,0 Z M22.5,15.5625 C22.5,16.78125 22.3125,18 22.3125,18 C22.3125,18 22.125,19.03125 21.75,19.5 C21.1875,20.0625 20.53125,20.0625 20.25,20.15625 C18.1875,20.34375 15,20.34375 15,20.34375 C15,20.34375 11.0625,20.34375 9.9375,20.15625 C9.5625,20.0625 8.8125,20.15625 8.25,19.5 C7.78125,19.03125 7.6875,18 7.6875,18 C7.6875,18 7.5,16.78125 7.5,15.5625 L7.5,14.4375 C7.5,13.21875 7.6875,12 7.6875,12 C7.6875,12 7.875,10.96875 8.25,10.5 C8.8125,9.9375 9.46875,9.9375 9.75,9.84375 C11.8125,9.65625 15,9.65625 15,9.65625 L15,9.65625 C15,9.65625 18.1875,9.65625 20.25,9.84375 C20.53125,9.84375 21.1875,9.84375 21.75,10.5 C22.21875,10.96875 22.3125,12 22.3125,12 C22.3125,12 22.5,13.21875 22.5,14.4375 L22.5,15.5625 Z" id="Shape"></path>
            <polygon id="Path" points="13.40625 16.96875 17.53125 14.8125 13.40625 12.75"></polygon>
        </g>
    </g>
</svg>