<svg xmlns="http://www.w3.org/2000/svg" width="50" height="50" viewBox="0 0 50 50">
  <g id="Check-in_area" data-name="Check-in area" transform="translate(-547.932 -3750)">
    <path id="Path_1016" data-name="Path 1016" d="M532.641,3251.674v8.333l8.333-8.333Z" transform="translate(15.291 523.325)" fill="#bd8b13"/>
    <path id="Path_1017" data-name="Path 1017" d="M558.026,3261.6h-3.134v-1.048a3.128,3.128,0,0,0-3.125-3.125h-2.084a3.128,3.128,0,0,0-3.125,3.125v1.048h-3.135a3.129,3.129,0,0,0-3.125,3.125v8.326a3.129,3.129,0,0,0,3.125,3.125h14.6a3.129,3.129,0,0,0,3.125-3.125v-8.326A3.129,3.129,0,0,0,558.026,3261.6Zm-9.383-1.048a1.042,1.042,0,0,1,1.041-1.042h2.084a1.042,1.042,0,0,1,1.041,1.042v1.041h-4.166Zm-5.218,13.541a1.042,1.042,0,0,1-1.041-1.041v-8.326a1.043,1.043,0,0,1,1.041-1.042h2.28v10.41Zm4.363,0v-10.41h5.892v10.41Zm11.28-1.041a1.042,1.042,0,0,1-1.041,1.041h-2.263v-10.41h2.263a1.042,1.042,0,0,1,1.041,1.042Z" transform="translate(15.957 523.826)" fill="#4e4c4a"/>
    <path id="Path_1018" data-name="Path 1018" d="M541.682,3239.089a5.208,5.208,0,1,0-5.208-5.208A5.214,5.214,0,0,0,541.682,3239.089Zm0-8.333a3.125,3.125,0,1,1-3.125,3.125A3.128,3.128,0,0,1,541.682,3230.756Z" transform="translate(15.625 521.327)" fill="#4e4c4a"/>
    <path id="Path_1019" data-name="Path 1019" d="M557.641,3250.59v-2.083h-6.25V3243.3a3.128,3.128,0,0,0-3.125-3.125H544.1a1.042,1.042,0,0,0-.932.575l-1.152,2.3-1.151-2.3a1.044,1.044,0,0,0-.932-.575h-4.167a3.128,3.128,0,0,0-3.125,3.125v7.291h25Zm-22.916-2.083V3243.3a1.042,1.042,0,0,1,1.041-1.042h3.523l1.8,3.591a1.084,1.084,0,0,0,1.863,0l1.8-3.591h3.523a1.043,1.043,0,0,1,1.042,1.042v5.208Z" transform="translate(15.291 522.326)" fill="#4e4c4a"/>
    <path id="Path_1020" data-name="Path 1020" d="M571.366,3243.061c2.783,0,4.628-3.572,4.628-5.934a4.629,4.629,0,0,0-9.258,0C566.737,3239.49,568.584,3243.061,571.366,3243.061Zm0-8.479a2.548,2.548,0,0,1,2.546,2.546c0,1.591-1.316,3.85-2.546,3.85s-2.546-2.259-2.546-3.85A2.549,2.549,0,0,1,571.366,3234.582Z" transform="translate(18.255 521.658)" fill="#4e4c4a"/>
    <path id="Path_1021" data-name="Path 1021" d="M578.563,3248.46a5.183,5.183,0,0,0-5.142-4.387h-2.644a5.241,5.241,0,0,0-4.449,2.5l-6.373,10.467a1.042,1.042,0,1,0,1.779,1.084l6.374-10.468a3.142,3.142,0,0,1,2.669-1.5h2.644a3.112,3.112,0,0,1,3.086,2.632l1.33,8.331-2.339,1.343-1.315,16.79h-1.127v-14.546a1.042,1.042,0,0,0-2.084,0v14.546h-1.214l-1.274-16.243a1.058,1.058,0,0,0-1.121-.957,1.042,1.042,0,0,0-.957,1.12l1.424,18.163h8.278l1.38-17.615,2.633-1.508Z" transform="translate(17.653 522.666)" fill="#4e4c4a"/>
    <rect id="Rectangle_362" data-name="Rectangle 362" width="49.999" height="49.999" transform="translate(547.933 3750)" fill="none"/>
  </g>
</svg>
