<svg width="14" height="14" viewBox="0 0 14 14" fill="none" xmlns="http://www.w3.org/2000/svg">
<g clip-path="url(#clip0)">
<path d="M0 14H2.625L0 11.375V14Z" fill="#BD8B13"/>
<path d="M13.2223 1.03925C13.1896 1.0058 13.1503 0.97944 13.1069 0.961797C13.0636 0.944155 13.017 0.935611 12.9702 0.936695L7.7594 0.921873L7.75506 1.63298L12.1095 1.64312L6.02546 7.69624L6.52899 8.2019L12.613 2.14878L12.6002 6.49863L13.3143 6.5003L13.3238 1.29173C13.3251 1.24495 13.3167 1.1984 13.2993 1.15496C13.2818 1.11153 13.2557 1.07215 13.2223 1.03925Z" fill="#005F96" stroke="#005F96" stroke-width="0.25"/>
<path fill-rule="evenodd" clip-rule="evenodd" d="M0 3.9375C0 2.72938 0.979377 1.75 2.1875 1.75H6.125V2.625H2.1875C1.46263 2.625 0.875 3.21263 0.875 3.9375V11.375L0 10.5V3.9375Z" fill="#005F96"/>
<path fill-rule="evenodd" clip-rule="evenodd" d="M11.375 11.8125V7.875H12.25V11.8125C12.25 13.0206 11.2706 14 10.0625 14H3.5L2.625 13.125H10.0625C10.7874 13.125 11.375 12.5374 11.375 11.8125Z" fill="#005F96"/>
</g>
<defs>
<clipPath id="clip0">
<rect width="14" height="13.9969" fill="white"/>
</clipPath>
</defs>
</svg>
