<?xml version="1.0" encoding="UTF-8"?>
<svg width="30px" height="30px" viewBox="0 0 30 30" version="1.1" xmlns="http://www.w3.org/2000/svg" xmlns:xlink="http://www.w3.org/1999/xlink">
    <!-- Generator: Sketch 57.1 (83088) - https://sketch.com -->
    <title>Atom/ Icon/ Social icon/ Facebook</title>
    <desc>Created with Sketch.</desc>
    <g id="Atom/-Icon/-Social-icon/-Facebook" stroke="none" stroke-width="1" fill="none" fill-rule="evenodd">
        <g id="social-1_round-facebook" fill="#444444" fill-rule="nonzero">
            <path d="M15,0 C6.75,0 0,6.75 0,15 C0,23.25 6.75,30 15,30 C23.25,30 30,23.25 30,15 C30,6.75 23.25,0 15,0 Z M18.9375,10.03125 L17.53125,10.03125 C16.40625,10.03125 16.21875,10.59375 16.21875,11.34375 L16.21875,13.03125 L18.84375,13.03125 L18.46875,15.65625 L16.21875,15.65625 L16.21875,22.5 L13.5,22.5 L13.5,15.65625 L11.15625,15.65625 L11.15625,13.03125 L13.5,13.03125 L13.5,11.0625 C13.40625,8.71875 14.8125,7.5 16.875,7.5 C17.8125,7.5 18.65625,7.59375 18.9375,7.59375 L18.9375,10.03125 Z" id="Shape"></path>
        </g>
    </g>
</svg>