<?xml version="1.0" encoding="UTF-8"?>
<svg width="30px" height="30px" viewBox="0 0 30 30" version="1.1" xmlns="http://www.w3.org/2000/svg" xmlns:xlink="http://www.w3.org/1999/xlink">
    <!-- Generator: Sketch 57.1 (83088) - https://sketch.com -->
    <title>Atom/ Icon/ Social icon/ LinkedIn</title>
    <desc>Created with Sketch.</desc>
    <g id="Atom/-Icon/-Social-icon/-LinkedIn" stroke="none" stroke-width="1" fill="none" fill-rule="evenodd">
        <g id="social-1_round-linkedin" fill="#444444" fill-rule="nonzero">
            <path d="M15,0 C6.75,0 0,6.75 0,15 C0,23.25 6.75,30 15,30 C23.25,30 30,23.25 30,15 C30,6.75 23.25,0 15,0 Z M10.875,22.5 L7.78125,22.5 L7.78125,12.46875 L10.875,12.46875 L10.875,22.5 L10.875,22.5 Z M9.28125,11.15625 C8.34375,11.15625 7.5,10.3125 7.5,9.28125 C7.5,8.34375 8.34375,7.5 9.28125,7.5 C10.3125,7.5 11.0625,8.34375 11.0625,9.28125 C11.0625,10.3125 10.3125,11.15625 9.28125,11.15625 Z M22.5,22.5 L19.40625,22.5 L19.40625,17.625 C19.40625,16.5 19.40625,15 17.8125,15 C16.21875,15 15.9375,16.21875 15.9375,17.53125 L15.9375,22.5 L12.84375,22.5 L12.84375,12.46875 L15.84375,12.46875 L15.84375,13.875 L15.84375,13.875 C16.21875,13.125 17.25,12.28125 18.75,12.28125 C21.9375,12.28125 22.5,14.34375 22.5,17.0625 L22.5,22.5 Z" id="Shape"></path>
        </g>
    </g>
</svg>