<?xml version="1.0" encoding="UTF-8"?>
<svg width="30px" height="30px" viewBox="0 0 30 30" version="1.1" xmlns="http://www.w3.org/2000/svg" xmlns:xlink="http://www.w3.org/1999/xlink">
    <!-- Generator: Sketch 57.1 (83088) - https://sketch.com -->
    <title>Atom/ Icon/ Social icon/ Instagram</title>
    <desc>Created with Sketch.</desc>
    <g id="Atom/-Icon/-Social-icon/-Instagram" stroke="none" stroke-width="1" fill="none" fill-rule="evenodd">
        <g id="social-1_round-instagram" fill="#444444" fill-rule="nonzero">
            <circle id="Oval" cx="15" cy="15" r="2.90625"></circle>
            <path d="M18.375,12.09375 L20.4375,12.09375 C20.625,12.09375 20.8125,11.90625 20.8125,11.71875 L20.8125,9.65625 C20.8125,9.46875 20.625,9.28125 20.4375,9.28125 L18.375,9.28125 C18.1875,9.28125 18,9.46875 18,9.65625 L18,11.71875 C17.90625,11.90625 18.09375,12.09375 18.375,12.09375 Z" id="Path"></path>
            <path d="M15,0 C6.75,0 0,6.75 0,15 C0,23.25 6.75,30 15,30 C23.25,30 30,23.25 30,15 C30,6.75 23.25,0 15,0 Z M22.5,20.71875 C22.5,21.65625 21.65625,22.5 20.71875,22.5 L9.28125,22.5 C8.34375,22.5 7.5,21.75 7.5,20.71875 L7.5,9.28125 C7.5,8.25 8.34375,7.5 9.28125,7.5 L20.71875,7.5 C21.65625,7.5 22.5,8.25 22.5,9.28125 L22.5,20.71875 Z" id="Shape"></path>
            <path d="M19.59375,15 C19.59375,17.53125 17.53125,19.59375 15,19.59375 C12.46875,19.59375 10.40625,17.53125 10.40625,15 C10.40625,14.625 10.5,14.15625 10.59375,13.78125 L9.1875,13.78125 L9.1875,20.34375 C9.1875,20.53125 9.375,20.71875 9.5625,20.71875 L20.34375,20.71875 C20.53125,20.71875 20.71875,20.53125 20.71875,20.34375 L20.71875,13.78125 L19.3125,13.78125 C19.5,14.15625 19.59375,14.625 19.59375,15 Z" id="Path"></path>
        </g>
    </g>
</svg>