<svg width="20" height="17" viewBox="0 0 20 17" fill="none" xmlns="http://www.w3.org/2000/svg">
<path fill-rule="evenodd" clip-rule="evenodd" d="M10.0922 12.2278C10.7022 12.2278 11.1982 12.7102 11.1982 13.302C11.1982 13.8958 10.7022 14.3782 10.0922 14.3782C9.8026 14.3806 9.52388 14.2688 9.31698 14.0673C9.11008 13.8658 8.99185 13.591 8.98816 13.303C8.98816 12.7102 9.48316 12.2278 10.0922 12.2278V12.2278ZM9.38916 11.4769V5.79862H10.8862V11.4779H9.38916V11.4769ZM2.07916 15.5081L10.1522 2.21004L17.9292 15.5081H2.08016H2.07916ZM19.8812 15.8791L10.8112 0.370992C10.7458 0.259197 10.6524 0.166218 10.54 0.101179C10.4276 0.0361392 10.3002 0.00127271 10.1702 0H10.1632C10.0341 6.87016e-05 9.90716 0.0332382 9.7947 0.0963068C9.68224 0.159375 9.58803 0.250213 9.52116 0.360051L0.108162 15.8681C0.0393843 15.9813 0.00208514 16.1106 8.49121e-05 16.2428C-0.00191531 16.375 0.0314553 16.5054 0.0967788 16.6206C0.162102 16.7357 0.257031 16.8316 0.37184 16.8982C0.48665 16.9649 0.617215 17 0.750162 17H19.2332C19.365 16.9999 19.4945 16.9653 19.6085 16.8996C19.7226 16.834 19.8173 16.7395 19.883 16.6259C19.9487 16.5122 19.9831 16.3833 19.9828 16.2522C19.9825 16.1211 19.9474 15.9924 19.8812 15.8791V15.8791Z" fill="white"/>
</svg>
